<?xml version="1.0" encoding="utf-8"?>
<!-- Generator: Adobe Illustrator 22.1.0, SVG Export Plug-In . SVG Version: 6.00 Build 0)  -->
<svg version="1.1" id="Layer_1" xmlns="http://www.w3.org/2000/svg" xmlns:xlink="http://www.w3.org/1999/xlink" x="0px" y="0px"
	 viewBox="0 0 50 50" style="enable-background:new 0 0 50 50;" xml:space="preserve">
<style type="text/css">
	.st0{fill:none;}
	.st1{fill:none;stroke:#22B573;stroke-width:0.5;stroke-miterlimit:10;}
</style>
<rect x="8" y="9.6" class="st0" width="5.2" height="4.8"/>
<line class="st1" x1="10.2" y1="5.2" x2="37.4" y2="12"/>
<line class="st1" x1="37.3" y1="4.7" x2="21.5" y2="28"/>
<line class="st1" x1="34.8" y1="29.4" x2="15.6" y2="11.1"/>
<line class="st1" x1="27" y1="3.6" x2="25.5" y2="36.8"/>
<line class="st1" x1="42.2" y1="20.9" x2="6.6" y2="22.1"/>
<line class="st1" x1="9.1" y1="15.3" x2="34.4" y2="40.5"/>
<line class="st1" x1="8.4" y1="43.5" x2="37.1" y2="12"/>
<line class="st1" x1="7.1" y1="35" x2="42.2" y2="20.9"/>
<line class="st1" x1="10.2" y1="5.2" x2="25.5" y2="36.5"/>
<line class="st1" x1="8.3" y1="43" x2="15.6" y2="11.1"/>
<line class="st1" x1="7.2" y1="34.7" x2="37.3" y2="4.7"/>
<line class="st1" x1="6.6" y1="22.1" x2="27" y2="3.9"/>
<line class="st1" x1="34.8" y1="29.4" x2="9.1" y2="15.3"/>
<line class="st1" x1="34.1" y1="40.3" x2="37.1" y2="12"/>
</svg>
